<mxfile host="app.diagrams.net" agent="Mozilla/5.0 (Macintosh; Intel Mac OS X 10_15_7) AppleWebKit/537.36 (KHTML, like Gecko) Chrome/133.0.0.0 Safari/537.36" version="26.0.16">
  <diagram name="Page-1" id="AHf6879yrCisYdVrGaV_">
    <mxGraphModel>
      <root>
        <mxCell id="0" />
        <mxCell id="1" parent="0" />
        <mxCell id="2" value="Start" style="whiteSpace=wrap;strokeWidth=2;" vertex="1" parent="1">
          <mxGeometry x="8" y="164" width="95" height="54" as="geometry" />
        </mxCell>
        <mxCell id="3" value="InputData" style="whiteSpace=wrap;strokeWidth=2;" vertex="1" parent="1">
          <mxGeometry x="153" y="164" width="130" height="54" as="geometry" />
        </mxCell>
        <mxCell id="4" value="ProcessData" style="whiteSpace=wrap;strokeWidth=2;" vertex="1" parent="1">
          <mxGeometry x="333" y="164" width="146" height="54" as="geometry" />
        </mxCell>
        <mxCell id="5" value="ExecuteA" style="whiteSpace=wrap;strokeWidth=2;" vertex="1" parent="1">
          <mxGeometry x="615" y="60" width="126" height="54" as="geometry" />
        </mxCell>
        <mxCell id="6" value="ExecuteB" style="whiteSpace=wrap;strokeWidth=2;" vertex="1" parent="1">
          <mxGeometry x="615" y="268" width="126" height="54" as="geometry" />
        </mxCell>
        <mxCell id="7" value="SubprocessX" style="whiteSpace=wrap;strokeWidth=2;" vertex="1" parent="1">
          <mxGeometry x="895" y="8" width="148" height="54" as="geometry" />
        </mxCell>
        <mxCell id="8" value="SubprocessY" style="whiteSpace=wrap;strokeWidth=2;" vertex="1" parent="1">
          <mxGeometry x="895" y="112" width="148" height="54" as="geometry" />
        </mxCell>
        <mxCell id="9" value="SubprocessZ" style="whiteSpace=wrap;strokeWidth=2;" vertex="1" parent="1">
          <mxGeometry x="895" y="216" width="147" height="54" as="geometry" />
        </mxCell>
        <mxCell id="10" value="SubprocessW" style="whiteSpace=wrap;strokeWidth=2;" vertex="1" parent="1">
          <mxGeometry x="893" y="320" width="152" height="54" as="geometry" />
        </mxCell>
        <mxCell id="11" value="FinishX" style="whiteSpace=wrap;strokeWidth=2;" vertex="1" parent="1">
          <mxGeometry x="1161" y="8" width="110" height="54" as="geometry" />
        </mxCell>
        <mxCell id="12" value="FinishY" style="whiteSpace=wrap;strokeWidth=2;" vertex="1" parent="1">
          <mxGeometry x="1161" y="112" width="111" height="54" as="geometry" />
        </mxCell>
        <mxCell id="13" value="FinishZ" style="whiteSpace=wrap;strokeWidth=2;" vertex="1" parent="1">
          <mxGeometry x="1161" y="216" width="110" height="54" as="geometry" />
        </mxCell>
        <mxCell id="14" value="FinishW" style="whiteSpace=wrap;strokeWidth=2;" vertex="1" parent="1">
          <mxGeometry x="1159" y="320" width="115" height="54" as="geometry" />
        </mxCell>
        <mxCell id="15" value="NextStep" style="whiteSpace=wrap;strokeWidth=2;" vertex="1" parent="1">
          <mxGeometry x="1398" y="164" width="125" height="54" as="geometry" />
        </mxCell>
        <mxCell id="16" value="MakeDecision" style="whiteSpace=wrap;strokeWidth=2;" vertex="1" parent="1">
          <mxGeometry x="1678" y="164" width="156" height="54" as="geometry" />
        </mxCell>
        <mxCell id="17" value="DecisionA" style="whiteSpace=wrap;strokeWidth=2;" vertex="1" parent="1">
          <mxGeometry x="1970" y="112" width="129" height="54" as="geometry" />
        </mxCell>
        <mxCell id="18" value="DecisionB" style="whiteSpace=wrap;strokeWidth=2;" vertex="1" parent="1">
          <mxGeometry x="1970" y="216" width="128" height="54" as="geometry" />
        </mxCell>
        <mxCell id="19" value="ActionA" style="whiteSpace=wrap;strokeWidth=2;" vertex="1" parent="1">
          <mxGeometry x="2249" y="112" width="115" height="54" as="geometry" />
        </mxCell>
        <mxCell id="20" value="ActionB" style="whiteSpace=wrap;strokeWidth=2;" vertex="1" parent="1">
          <mxGeometry x="2249" y="216" width="115" height="54" as="geometry" />
        </mxCell>
        <mxCell id="21" value="EndFlowchart" style="whiteSpace=wrap;strokeWidth=2;" vertex="1" parent="1">
          <mxGeometry x="2444" y="164" width="157" height="54" as="geometry" />
        </mxCell>
        <mxCell id="22" value="Stop" style="whiteSpace=wrap;strokeWidth=2;" vertex="1" parent="1">
          <mxGeometry x="2652" y="164" width="92" height="54" as="geometry" />
        </mxCell>
        <mxCell id="23" value="" style="curved=1;startArrow=none;endArrow=block;exitX=1;exitY=0.5;entryX=0;entryY=0.5;" edge="1" parent="1" source="2" target="3">
          <mxGeometry relative="1" as="geometry">
            <Array as="points" />
          </mxGeometry>
        </mxCell>
        <mxCell id="24" value="" style="curved=1;startArrow=none;endArrow=block;exitX=1;exitY=0.5;entryX=0;entryY=0.5;" edge="1" parent="1" source="3" target="4">
          <mxGeometry relative="1" as="geometry">
            <Array as="points" />
          </mxGeometry>
        </mxCell>
        <mxCell id="25" value="Condition A" style="curved=1;startArrow=none;endArrow=block;exitX=0.75;exitY=0;entryX=0;entryY=0.5;" edge="1" parent="1" source="4" target="5">
          <mxGeometry relative="1" as="geometry">
            <Array as="points">
              <mxPoint x="547" y="87" />
            </Array>
          </mxGeometry>
        </mxCell>
        <mxCell id="26" value="Condition B" style="curved=1;startArrow=none;endArrow=block;exitX=0.75;exitY=1;entryX=0;entryY=0.5;" edge="1" parent="1" source="4" target="6">
          <mxGeometry relative="1" as="geometry">
            <Array as="points">
              <mxPoint x="547" y="295" />
            </Array>
          </mxGeometry>
        </mxCell>
        <mxCell id="27" value="Subprocess X" style="curved=1;startArrow=none;endArrow=block;exitX=1.01;exitY=0.06;entryX=0;entryY=0.5;" edge="1" parent="1" source="5" target="7">
          <mxGeometry relative="1" as="geometry">
            <Array as="points">
              <mxPoint x="817" y="35" />
            </Array>
          </mxGeometry>
        </mxCell>
        <mxCell id="28" value="Subprocess Y" style="curved=1;startArrow=none;endArrow=block;exitX=1.01;exitY=0.94;entryX=0;entryY=0.5;" edge="1" parent="1" source="5" target="8">
          <mxGeometry relative="1" as="geometry">
            <Array as="points">
              <mxPoint x="817" y="139" />
            </Array>
          </mxGeometry>
        </mxCell>
        <mxCell id="29" value="Subprocess Z" style="curved=1;startArrow=none;endArrow=block;exitX=1;exitY=0.06;entryX=0;entryY=0.5;" edge="1" parent="1" source="6" target="9">
          <mxGeometry relative="1" as="geometry">
            <Array as="points">
              <mxPoint x="817" y="243" />
            </Array>
          </mxGeometry>
        </mxCell>
        <mxCell id="30" value="Subprocess W" style="curved=1;startArrow=none;endArrow=block;exitX=1;exitY=0.94;entryX=0;entryY=0.5;" edge="1" parent="1" source="6" target="10">
          <mxGeometry relative="1" as="geometry">
            <Array as="points">
              <mxPoint x="817" y="347" />
            </Array>
          </mxGeometry>
        </mxCell>
        <mxCell id="31" value="Finish X" style="curved=1;startArrow=none;endArrow=block;exitX=1;exitY=0.5;entryX=0;entryY=0.5;" edge="1" parent="1" source="7" target="11">
          <mxGeometry relative="1" as="geometry">
            <Array as="points" />
          </mxGeometry>
        </mxCell>
        <mxCell id="32" value="Finish Y" style="curved=1;startArrow=none;endArrow=block;exitX=1;exitY=0.5;entryX=0;entryY=0.5;" edge="1" parent="1" source="8" target="12">
          <mxGeometry relative="1" as="geometry">
            <Array as="points" />
          </mxGeometry>
        </mxCell>
        <mxCell id="33" value="Finish Z" style="curved=1;startArrow=none;endArrow=block;exitX=1;exitY=0.5;entryX=0;entryY=0.5;" edge="1" parent="1" source="9" target="13">
          <mxGeometry relative="1" as="geometry">
            <Array as="points" />
          </mxGeometry>
        </mxCell>
        <mxCell id="34" value="Finish W" style="curved=1;startArrow=none;endArrow=block;exitX=1;exitY=0.5;entryX=0;entryY=0.5;" edge="1" parent="1" source="10" target="14">
          <mxGeometry relative="1" as="geometry">
            <Array as="points" />
          </mxGeometry>
        </mxCell>
        <mxCell id="35" value="Next Step" style="curved=1;startArrow=none;endArrow=block;exitX=1.01;exitY=0.5;entryX=0.33;entryY=0;" edge="1" parent="1" source="11" target="15">
          <mxGeometry relative="1" as="geometry">
            <Array as="points">
              <mxPoint x="1336" y="35" />
            </Array>
          </mxGeometry>
        </mxCell>
        <mxCell id="36" value="Next Step" style="curved=1;startArrow=none;endArrow=block;exitX=1;exitY=0.5;entryX=0;entryY=0.02;" edge="1" parent="1" source="12" target="15">
          <mxGeometry relative="1" as="geometry">
            <Array as="points">
              <mxPoint x="1336" y="139" />
            </Array>
          </mxGeometry>
        </mxCell>
        <mxCell id="37" value="Next Step" style="curved=1;startArrow=none;endArrow=block;exitX=1.01;exitY=0.5;entryX=0;entryY=0.98;" edge="1" parent="1" source="13" target="15">
          <mxGeometry relative="1" as="geometry">
            <Array as="points">
              <mxPoint x="1336" y="243" />
            </Array>
          </mxGeometry>
        </mxCell>
        <mxCell id="38" value="Next Step" style="curved=1;startArrow=none;endArrow=block;exitX=1;exitY=0.5;entryX=0.33;entryY=1;" edge="1" parent="1" source="14" target="15">
          <mxGeometry relative="1" as="geometry">
            <Array as="points">
              <mxPoint x="1336" y="347" />
            </Array>
          </mxGeometry>
        </mxCell>
        <mxCell id="39" value="Decision Point" style="curved=1;startArrow=none;endArrow=block;exitX=1;exitY=0.5;entryX=0;entryY=0.5;" edge="1" parent="1" source="15" target="16">
          <mxGeometry relative="1" as="geometry">
            <Array as="points" />
          </mxGeometry>
        </mxCell>
        <mxCell id="40" value="Condition A" style="curved=1;startArrow=none;endArrow=block;exitX=0.98;exitY=0;entryX=0;entryY=0.5;" edge="1" parent="1" source="16" target="17">
          <mxGeometry relative="1" as="geometry">
            <Array as="points">
              <mxPoint x="1902" y="139" />
            </Array>
          </mxGeometry>
        </mxCell>
        <mxCell id="41" value="Condition B" style="curved=1;startArrow=none;endArrow=block;exitX=0.98;exitY=1;entryX=0;entryY=0.5;" edge="1" parent="1" source="16" target="18">
          <mxGeometry relative="1" as="geometry">
            <Array as="points">
              <mxPoint x="1902" y="243" />
            </Array>
          </mxGeometry>
        </mxCell>
        <mxCell id="42" value="Take Action A" style="curved=1;startArrow=none;endArrow=block;exitX=1;exitY=0.5;entryX=0;entryY=0.5;" edge="1" parent="1" source="17" target="19">
          <mxGeometry relative="1" as="geometry">
            <Array as="points" />
          </mxGeometry>
        </mxCell>
        <mxCell id="43" value="Take Action B" style="curved=1;startArrow=none;endArrow=block;exitX=1.01;exitY=0.5;entryX=0;entryY=0.5;" edge="1" parent="1" source="18" target="20">
          <mxGeometry relative="1" as="geometry">
            <Array as="points" />
          </mxGeometry>
        </mxCell>
        <mxCell id="44" value="End" style="curved=1;startArrow=none;endArrow=block;exitX=1;exitY=0.5;entryX=0.11;entryY=0;" edge="1" parent="1" source="19" target="21">
          <mxGeometry relative="1" as="geometry">
            <Array as="points">
              <mxPoint x="2404" y="139" />
            </Array>
          </mxGeometry>
        </mxCell>
        <mxCell id="45" value="End" style="curved=1;startArrow=none;endArrow=block;exitX=1;exitY=0.5;entryX=0.11;entryY=1;" edge="1" parent="1" source="20" target="21">
          <mxGeometry relative="1" as="geometry">
            <Array as="points">
              <mxPoint x="2404" y="243" />
            </Array>
          </mxGeometry>
        </mxCell>
        <mxCell id="46" value="" style="curved=1;startArrow=none;endArrow=block;exitX=1;exitY=0.5;entryX=-0.01;entryY=0.5;" edge="1" parent="1" source="21" target="22">
          <mxGeometry relative="1" as="geometry">
            <Array as="points" />
          </mxGeometry>
        </mxCell>
      </root>
    </mxGraphModel>
  </diagram>
</mxfile>
